<?xml version="1.0" encoding="UTF-8" standalone="no"?>
<!-- Created with Inkscape (http://www.inkscape.org/) -->

<svg
   xmlns:dc="http://purl.org/dc/elements/1.1/"
   xmlns:cc="http://creativecommons.org/ns#"
   xmlns:rdf="http://www.w3.org/1999/02/22-rdf-syntax-ns#"
   xmlns:svg="http://www.w3.org/2000/svg"
   xmlns="http://www.w3.org/2000/svg"
   xmlns:sodipodi="http://sodipodi.sourceforge.net/DTD/sodipodi-0.dtd"
   xmlns:inkscape="http://www.inkscape.org/namespaces/inkscape"
   width="210mm"
   height="69mm"
   viewBox="0 0 210 69"
   version="1.1"
   id="svg4579"
   sodipodi:docname="drawing.svg"
   inkscape:version="0.92.4 (5da689c313, 2019-01-14)">
  <defs
     id="defs4573" />
  <sodipodi:namedview
     id="base"
     pagecolor="#ffffff"
     bordercolor="#666666"
     borderopacity="1.0"
     inkscape:pageopacity="0.0"
     inkscape:pageshadow="2"
     inkscape:zoom="0.49497475"
     inkscape:cx="382.66538"
     inkscape:cy="767.84264"
     inkscape:document-units="mm"
     inkscape:current-layer="layer1"
     showgrid="false"
     inkscape:window-width="1920"
     inkscape:window-height="1051"
     inkscape:window-x="-9"
     inkscape:window-y="-9"
     inkscape:window-maximized="1"
     fit-margin-top="0" />
  <metadata
     id="metadata4576">
    <rdf:RDF>
      <cc:Work
         rdf:about="">
        <dc:format>image/svg+xml</dc:format>
        <dc:type
           rdf:resource="http://purl.org/dc/dcmitype/StillImage" />
        <dc:title></dc:title>
      </cc:Work>
    </rdf:RDF>
  </metadata>
  <g
     inkscape:label="Layer 1"
     inkscape:groupmode="layer"
     id="layer1"
     transform="translate(0,-228)">
    <g
       aria-label="Psühholoogia"
       style="font-style:normal;font-weight:normal;font-size:10.58333302px;line-height:1.25;font-family:sans-serif;letter-spacing:0px;word-spacing:0px;fill:#000000;fill-opacity:1;stroke:none;stroke-width:1;stroke-miterlimit:4;stroke-dasharray:none;paint-order:markers fill stroke"
       id="text4601"
       transform="translate(0.53453905,127.75483)">
      <path
         d="m 55.962652,103.27511 q 3.820583,1.2065 5.027083,3.55247 1.2065,2.27894 0.06703,4.96006 -0.737305,2.14488 -2.345972,4.69194 -1.608667,2.54706 -3.887611,5.16114 -2.278945,2.61408 -5.161139,5.16114 -2.815167,2.48003 -6.0325,4.62491 -2.882195,1.94381 -5.898445,3.35139 -2.949222,1.34056 -6.0325,2.48003 -3.083278,1.07245 -6.300611,2.01083 -3.150306,0.93839 -6.367639,1.94381 -0.60325,0.20108 -1.2065,0.26811 -0.536222,0.067 -0.938389,0.40217 -0.134056,0.53622 -0.469194,1.07244 -0.268112,0.53622 -0.402167,1.07245 -0.469195,1.13947 -0.670278,1.67569 -0.134055,0.53622 -0.201083,1.00542 -0.06703,0.46919 -0.201084,1.07244 -0.134055,0.53622 -0.469194,1.6757 -0.402167,1.34055 -0.60325,2.61408 -0.134056,1.27353 -0.268111,2.68111 -0.201083,0.4692 0.06703,0.73731 0.268111,0.33514 0,1.00541 v 0.4692 q -0.536223,0 -0.938389,-0.067 -0.335139,-0.067 -0.469195,-0.40217 -0.670278,-0.33514 -0.871361,-1.07244 -0.201083,-0.67028 -0.402167,-1.13947 0,-0.20109 0.06703,-0.26811 0.134056,0 -0.06703,0 v -0.53623 -0.40216 q -0.201083,-1.2065 0,-2.27895 0.268112,-1.13947 0.402167,-2.34597 0.134056,-1.47461 0.536222,-2.68111 0.402167,-1.2065 1.139473,-2.94922 -0.60325,-0.13406 -1.005417,-0.13406 -0.402167,-0.067 -0.871361,-0.067 -0.737306,0 -1.4746113,-0.13405 -0.7373056,-0.13406 -1.4746112,-0.13406 -1.5416389,0 -2.6811111,-0.53622 -1.1394722,-0.60325 -2.3459722,-1.47461 -1.0054167,-0.67028 -1.0054167,-2.07786 1.2065,-0.13406 1.80975,0.067 0.60325,0.20108 1.2065,0.80433 0.4021667,0.53622 1.0054167,1.00542 0.60325,0.40216 1.5416389,0.40216 1.0724445,0 2.3459719,0 1.273528,-0.067 2.413,-0.20108 0.536223,0 0.938389,-0.40217 0.402167,-0.40216 0.804334,-0.60325 0.402166,-0.53622 0.670277,-0.87136 0.335139,-0.40217 0.536223,-0.93839 1.407583,-2.88219 2.949222,-5.83141 1.541639,-2.94923 3.150305,-5.76439 1.675695,-2.8822 3.351389,-5.42925 1.742723,-2.61409 3.351389,-4.75898 0.335139,-0.40216 0.60325,-0.67027 0.335139,-0.33514 0.134056,-0.93839 0,-0.33514 0.268111,-0.60325 0.335139,-0.33514 0.670278,-0.53622 1.876778,-0.26812 3.820583,0.67027 0.335139,0.73731 -0.201083,1.47461 -0.60325,0.67028 -1.2065,1.34056 -0.60325,0.67028 -1.340556,1.34056 -1.474611,2.07786 -3.284361,4.75897 -1.742722,2.61408 -3.552472,5.49628 -1.742722,2.81516 -3.418417,5.69736 -1.608667,2.81516 -2.748139,5.22816 1.072445,0 1.273528,-0.13405 5.898445,-2.14489 11.394722,-4.28978 5.563306,-2.14489 10.992556,-5.16114 1.80975,-1.07244 4.155722,-2.94922 2.413,-1.94381 4.758973,-4.22275 2.345972,-2.34597 4.22275,-4.89303 1.943805,-2.54705 2.681111,-4.89303 0.804333,-2.413 0.134055,-4.3568 -0.60325,-2.01084 -3.418416,-3.21734 -1.139473,-0.46919 -2.278945,-0.60325 -1.072444,-0.13405 -2.278944,-0.13405 -3.284361,-0.13406 -6.501695,0.13405 -3.150305,0.26812 -6.367639,1.07245 -3.6195,0.80433 -7.104944,1.9438 -3.485445,1.13948 -6.702778,2.81517 -3.820584,1.94381 -7.104945,4.42383 -3.284361,2.48003 -5.697361,5.83142 -0.9383888,1.2065 -1.5416388,2.61408 -0.5362222,1.40759 -0.6702778,2.94923 0,1.2065 0.4691945,2.07786 0.4691944,0.87136 2.0108331,1.40758 0.201084,0.13406 0.469195,0.40217 0.335139,0.20108 0.469194,0.33514 0.469195,0.13405 0.60325,0.46919 0.134056,0.33514 0.469195,0.67028 -0.938389,0.33514 -1.742723,0.26811 -0.7373052,-0.13406 -1.2735274,-0.26811 -0.7373056,-0.33514 -1.4746112,-0.60325 -0.7373055,-0.26811 -1.2735278,-0.73731 -0.9383889,-0.7373 -1.6756944,-1.60866 -0.7373056,-0.87136 -1.1394723,-1.87678 -0.1340555,-0.53622 -0.1340555,-1.07245 0.067028,-0.60325 0.4021667,-1.27352 0.6702777,-1.40759 1.4075833,-2.81517 0.7373056,-1.40758 1.6756945,-2.74814 0.3351389,-0.7373 0.8713611,-1.27353 0.60325,-0.53622 1.3405556,-1.07244 0.4021666,-0.33514 0.6032504,-0.67028 0.268111,-0.33514 0.670277,-0.7373 3.418417,-3.08328 7.775223,-5.2952 3.01625,-1.54164 6.0325,-2.88219 3.01625,-1.40759 6.233583,-2.34598 1.742722,-0.26811 3.418417,-0.67027 1.675694,-0.4692 3.552472,-0.87136 2.413,-0.40217 5.027084,-0.40217 1.340555,-0.20109 2.614083,-0.20109 1.340555,-0.067 2.614083,-0.067 2.077861,0 4.088695,0.26811 2.010833,0.20108 3.887611,0.93839 z"
         style="font-style:normal;font-variant:normal;font-weight:normal;font-stretch:normal;font-size:67.02777863px;font-family:Abuget;-inkscape-font-specification:Abuget;fill:#050000;fill-opacity:1;stroke:#000000;stroke-width:1;stroke-miterlimit:4;stroke-dasharray:none;stroke-opacity:1;paint-order:markers fill stroke"
         id="path5240"
         inkscape:connector-curvature="0" />
      <path
         d="m 58.213321,137.9955 q -0.536222,0 -1.139472,0.13405 -0.60325,0.067 -1.005417,0.067 -0.536222,0 -1.005417,-0.13406 -0.469194,-0.13405 -1.005416,-0.40216 -1.474611,-0.80434 -1.675695,-2.21192 -0.201083,-1.47461 0.60325,-3.01625 0.402167,-0.67028 1.407584,-1.27353 1.005416,-0.67027 2.144888,-1.13947 1.206501,-0.46919 2.345973,-0.67028 1.2065,-0.26811 2.010833,-0.20108 0.60325,0 0.938389,0.60325 0.134056,0.40217 -0.06703,0.67028 -0.201083,0.20108 -0.469194,0.20108 -0.60325,0.067 -1.541639,0.40217 -0.871361,0.26811 -1.742722,0.7373 -0.871362,0.40217 -1.675695,0.93839 -0.737305,0.53622 -1.139472,1.07245 -0.335139,0.46919 -0.268111,1.07244 0.06703,0.60325 0.402166,0.80433 h 2.345973 q 1.005416,0 2.278944,0.53623 1.340556,0.53622 1.80975,1.40758 0.402167,0.87136 0,2.07786 -0.402166,1.13947 -1.340555,2.48003 -0.871361,1.27353 -2.077861,2.54705 -1.206501,1.27353 -2.547056,2.27895 -1.273528,0.93839 -2.480028,1.60867 -1.139472,0.60325 -1.876778,0.60325 -0.670277,0 -1.072444,-0.13406 -0.402167,-0.20108 -0.268111,-0.46919 1.541639,-1.07245 2.614083,-1.74273 1.139472,-0.7373 2.480028,-2.01083 0.469194,-0.53622 1.407583,-1.67569 1.005417,-1.13948 1.675695,-2.27895 0.737305,-1.13947 0.871361,-2.01083 0.201083,-0.87136 -0.938389,-0.87136 z"
         style="font-style:normal;font-variant:normal;font-weight:normal;font-stretch:normal;font-size:67.02777863px;font-family:Abuget;-inkscape-font-specification:Abuget;fill:#050000;fill-opacity:1;stroke:#000000;stroke-width:1;stroke-miterlimit:4;stroke-dasharray:none;stroke-opacity:1;paint-order:markers fill stroke"
         id="path5242"
         inkscape:connector-curvature="0" />
      <path
         d="m 68.980706,129.41594 q 0.268111,0.13406 0.536223,0.26811 0.268111,0.067 0.402166,0.067 0.335139,0.40217 0.201084,0.53622 -0.536223,0.80434 -1.340556,2.413 -0.804333,1.54164 -1.474611,3.01625 -0.60325,1.47461 -0.871361,2.48003 -0.201084,0.93839 0.536222,0.53622 0.402167,-0.26811 0.60325,-0.40216 0.201083,-0.20109 0.469194,-0.33514 1.80975,-1.60867 3.6195,-3.35139 1.80975,-1.80975 3.552473,-3.41842 0.402166,-0.46919 0.737305,-0.67028 0.335139,-0.26811 0.871361,-0.26811 0.268112,-0.13405 0.60325,0.067 0.402167,0.13406 1.139473,0.67028 0,0.26811 -0.06703,0.7373 0,0.40217 -0.268111,0.53623 -0.938389,0.67027 -1.273528,1.67569 -0.335139,0.93839 -1.072444,1.87678 -0.536223,0.80433 -0.737306,1.80975 -0.134056,0.93839 0.402167,2.14489 0.268111,0 0.60325,0 0.402166,0 0.670277,-0.13406 1.474612,-0.40217 2.815167,-0.80433 1.407583,-0.4692 2.748139,-1.00542 0.804333,-0.33514 1.608667,-0.67028 0.871361,-0.40216 1.876778,-0.40216 -0.134056,0.40216 -0.670278,1.2065 -0.536222,0.80433 -0.804334,0.93839 -1.340555,0.93838 -2.949222,1.67569 -1.541639,0.67028 -3.01625,1.40758 -0.670278,0.26811 -1.273528,0.40217 -0.536222,0.13406 -1.273527,0.13406 -0.536223,0.067 -1.139473,-0.20109 -0.60325,-0.26811 -1.072444,-0.67028 -0.469195,-0.46919 -0.804334,-1.07244 -0.268111,-0.60325 -0.201083,-1.13947 0,-0.53622 0.06703,-1.2065 0.134055,-0.67028 0.134055,-1.47461 -0.335138,0.26811 -0.60325,0.46919 -0.201083,0.13406 -0.335138,0.40217 -0.804334,0.93839 -1.742723,1.9438 -0.938389,0.93839 -1.742722,1.87678 -0.402167,0.26811 -0.938389,0.60325 -0.536222,0.33514 -1.072444,0.4692 -0.804334,0.46919 -1.608667,-0.33514 -0.469194,-0.4692 -0.737306,-0.93839 -0.268111,-0.53622 -0.268111,-1.27353 0,-1.07244 0.335139,-2.01083 0.335139,-1.00542 0.670278,-1.94381 0.670278,-1.60867 1.407583,-3.01625 0.737306,-1.40758 1.474612,-2.94922 0.134055,-0.26811 0.268111,-0.40217 0.134055,-0.13405 0.469194,-0.26811 z m -0.536222,-7.90928 q 0.335139,-0.13405 0.60325,-0.067 0.268111,0 0.469195,-0.13406 0.670277,-0.40217 1.2065,0 0.60325,0.40217 0.871361,1.07244 0.335139,0.60325 0.268111,1.27353 0,0.60325 -0.469195,0.60325 -1.474611,0.4692 -3.150305,-0.80433 -0.201084,-0.067 -0.335139,-0.40217 -0.134056,-0.33514 -0.134056,-0.67028 0,-0.33513 0.134056,-0.60325 0.201083,-0.26811 0.536222,-0.26811 z m 9.383889,0 q 0.335139,-0.13405 0.60325,-0.067 0.268111,0 0.469195,-0.13406 0.670277,-0.40217 1.2065,0 0.60325,0.40217 0.871361,1.07244 0.335139,0.60325 0.268111,1.27353 0,0.60325 -0.469195,0.60325 -1.474611,0.4692 -3.150305,-0.80433 -0.201084,-0.067 -0.335139,-0.40217 -0.134056,-0.33514 -0.134056,-0.67028 0,-0.33513 0.134056,-0.60325 0.201083,-0.26811 0.536222,-0.26811 z"
         style="font-style:normal;font-variant:normal;font-weight:normal;font-stretch:normal;font-size:67.02777863px;font-family:Abuget;-inkscape-font-specification:Abuget;fill:#050000;fill-opacity:1;stroke:#000000;stroke-width:1;stroke-miterlimit:4;stroke-dasharray:none;stroke-opacity:1;paint-order:markers fill stroke"
         id="path5244"
         inkscape:connector-curvature="0" />
      <path
         d="m 101.5604,136.92305 q 0.33514,-0.60325 0.93839,-1.00541 0.067,-0.26812 0.33513,0 v 0.13405 l -0.13405,0.67028 -0.53622,1.07244 -10.38931,13.13745 q -0.268111,0.20108 -0.469194,0.46919 -0.134056,0.26811 -0.335139,0.4692 -0.536222,0.67027 -1.273528,1.00541 -0.737305,0.33514 -1.541639,0.4692 -0.402166,0 -0.670277,-0.067 -0.60325,0 -0.871361,-0.26811 -0.268112,-0.20108 -0.536223,-0.40217 -0.268111,-0.26811 -0.469194,-0.60325 -0.201084,-0.20108 -0.335139,-0.60325 l -0.06703,-0.87136 v -0.46919 q 0,-0.60325 0.201083,-0.87136 l 0.402167,-0.93839 q 0.335139,-0.33514 0.402167,-0.60325 0.134055,-0.26811 0.268111,-0.60325 0.469194,-1.34056 1.273528,-2.54706 l 0.938389,-1.80975 0.871361,-1.47461 0.536222,-1.07244 2.345972,-4.0887 q 0.06703,-0.26811 0,-0.53622 -0.268111,-0.13406 -0.268111,-0.13406 -0.201083,0 -0.268111,0.067 -1.407583,0.73731 -2.815167,1.80975 -1.407583,1.07245 -2.413,2.21192 l -2.413,3.6195 q -0.469194,0.60325 -1.139472,0.87136 -0.134056,0.13405 -0.268111,0.20108 -0.134056,0.067 -0.201083,0.20109 -0.536223,0.7373 -0.804334,0.7373 -0.335139,0 -0.469194,-0.26811 -0.201084,-0.33514 -0.268111,-0.87136 -0.06703,-0.53622 -0.06703,-0.93839 0.335139,-0.93839 0.737305,-1.40758 0.938389,-1.13948 1.407584,-2.68111 0.469194,-1.60867 1.072444,-2.81517 0.60325,-1.34056 1.273528,-2.61408 0.670278,-1.34056 1.407583,-2.81517 l 1.407584,-2.68111 q 0.201083,-0.40217 0.469194,-0.80434 0.268111,-0.46919 0.402167,-1.00541 0,-0.20109 0.268111,-0.4692 0.335139,-0.40216 0.536222,-0.87136 0.201084,-0.46919 0.469195,-0.93839 l 0.938389,-1.47461 q 0.670277,-1.2065 1.139472,-2.413 0.268111,-0.67028 0.536222,-1.2065 0.335139,-0.53622 0.670278,-1.13947 0.670278,-1.54164 1.608667,-3.08328 1.005416,-1.54164 1.474611,-2.68111 0.134055,-0.33514 0.335139,-0.53622 0.201083,-0.26811 0.268111,-0.67028 0,-0.26811 0.134055,-0.46919 0.134056,-0.26811 0.268111,-0.40217 0.536223,-0.93839 1.340556,-1.00542 0.87137,-0.067 1.27353,0.87136 0.13406,0.20109 0,0.53623 -0.067,0.13405 -0.13405,0.26811 -0.067,0.067 0,0.20108 -0.26811,0.33514 -0.469202,0.60325 -0.134056,0.26811 -0.268111,0.53622 l -2.211917,3.68653 -0.804333,1.47461 q -1.608667,3.28436 -3.083278,5.96547 -1.407584,2.68112 -2.681111,4.96006 -1.273528,2.27894 -2.278945,4.15572 -0.938389,1.87678 -1.541639,3.48545 -0.06703,0.13405 0,0.53622 0.134056,0.40217 0.268111,0.46919 h 0.06703 q 0.402167,-0.26811 1.072445,-0.80433 0.737305,-0.53622 1.072444,-0.80433 l 1.474611,-1.00542 q 0.402167,-0.26811 0.737306,-0.46919 0.402166,-0.20109 0.938389,-0.33514 1.072444,-0.4692 2.345972,-0.067 l 0.335139,0.20108 q 0.536222,0.33514 0.60325,0.87136 0.06703,0.53623 -0.134056,1.13948 -0.134055,0.60325 -0.469194,1.2065 -0.268111,0.53622 -0.469195,0.93838 -0.402166,0.60325 -0.737305,1.27353 -0.335139,0.60325 -0.737306,1.27353 l -1.005417,1.80975 q -0.06703,0.13406 -0.201083,0.33514 -0.06703,0.13405 -0.134055,0.26811 -0.804334,1.34056 -1.541639,2.74814 -0.737306,1.40758 -1.474611,2.94922 -0.60325,0.93839 -0.804334,2.01083 -0.06703,0.13406 0.134056,0.33514 h 0.201083 q 0.134056,0 0.134056,-0.067 0.536222,-0.4692 1.072444,-0.87137 0.60325,-0.46919 0.938389,-1.00541 0.134056,-0.067 0.201083,-0.13406 0.06703,-0.13405 0.134056,-0.20108 0.402167,-0.33514 1.675694,-1.54164 1.273528,-1.2065 2.815167,-2.81517 1.608667,-1.67569 3.217333,-3.48544 1.608673,-1.87678 2.815173,-3.41842 z"
         style="font-style:normal;font-variant:normal;font-weight:normal;font-stretch:normal;font-size:67.02777863px;font-family:Abuget;-inkscape-font-specification:Abuget;fill:#050000;fill-opacity:1;stroke:#000000;stroke-width:1;stroke-miterlimit:4;stroke-dasharray:none;stroke-opacity:1;paint-order:markers fill stroke"
         id="path5246"
         inkscape:connector-curvature="0" />
      <path
         d="m 119.10282,136.92305 q 0.33514,-0.60325 0.93839,-1.00541 0.067,-0.26812 0.33514,0 v 0.13405 l -0.13405,0.67028 -0.53623,1.07244 -10.3893,13.13745 q -0.26811,0.20108 -0.4692,0.46919 -0.13405,0.26811 -0.33514,0.4692 -0.53622,0.67027 -1.27352,1.00541 -0.73731,0.33514 -1.54164,0.4692 -0.40217,0 -0.67028,-0.067 -0.60325,0 -0.87136,-0.26811 -0.26811,-0.20108 -0.53622,-0.40217 -0.26811,-0.26811 -0.4692,-0.60325 -0.20108,-0.20108 -0.33514,-0.60325 l -0.067,-0.87136 v -0.46919 q 0,-0.60325 0.20108,-0.87136 l 0.40217,-0.93839 q 0.33513,-0.33514 0.40216,-0.60325 0.13406,-0.26811 0.26811,-0.60325 0.4692,-1.34056 1.27353,-2.54706 l 0.93839,-1.80975 0.87136,-1.47461 0.53622,-1.07244 2.34598,-4.0887 q 0.067,-0.26811 0,-0.53622 -0.26812,-0.13406 -0.26812,-0.13406 -0.20108,0 -0.26811,0.067 -1.40758,0.73731 -2.81516,1.80975 -1.40759,1.07245 -2.413,2.21192 l -2.413,3.6195 q -0.4692,0.60325 -1.13948,0.87136 -0.13405,0.13405 -0.26811,0.20108 -0.13405,0.067 -0.20108,0.20109 -0.536223,0.7373 -0.804334,0.7373 -0.335139,0 -0.469194,-0.26811 -0.201083,-0.33514 -0.268111,-0.87136 -0.06703,-0.53622 -0.06703,-0.93839 0.335139,-0.93839 0.737306,-1.40758 0.938393,-1.13948 1.407583,-2.68111 0.4692,-1.60867 1.07245,-2.81517 0.60325,-1.34056 1.27352,-2.61408 0.67028,-1.34056 1.40759,-2.81517 l 1.40758,-2.68111 q 0.20108,-0.40217 0.4692,-0.80434 0.26811,-0.46919 0.40216,-1.00541 0,-0.20109 0.26811,-0.4692 0.33514,-0.40216 0.53623,-0.87136 0.20108,-0.46919 0.46919,-0.93839 l 0.93839,-1.47461 q 0.67028,-1.2065 1.13947,-2.413 0.26811,-0.67028 0.53622,-1.2065 0.33514,-0.53622 0.67028,-1.13947 0.67028,-1.54164 1.60867,-3.08328 1.00541,-1.54164 1.47461,-2.68111 0.13405,-0.33514 0.33514,-0.53622 0.20108,-0.26811 0.26811,-0.67028 0,-0.26811 0.13405,-0.46919 0.13406,-0.26811 0.26812,-0.40217 0.53622,-0.93839 1.34055,-1.00542 0.87136,-0.067 1.27353,0.87136 0.13405,0.20109 0,0.53623 -0.067,0.13405 -0.13406,0.26811 -0.067,0.067 0,0.20108 -0.26811,0.33514 -0.46919,0.60325 -0.13406,0.26811 -0.26811,0.53622 l -2.21192,3.68653 -0.80433,1.47461 q -1.60867,3.28436 -3.08328,5.96547 -1.40758,2.68112 -2.68111,4.96006 -1.27353,2.27894 -2.27895,4.15572 -0.93838,1.87678 -1.54163,3.48545 -0.067,0.13405 0,0.53622 0.13405,0.40217 0.26811,0.46919 h 0.067 q 0.40217,-0.26811 1.07245,-0.80433 0.7373,-0.53622 1.07244,-0.80433 l 1.47461,-1.00542 q 0.40217,-0.26811 0.73731,-0.46919 0.40217,-0.20109 0.93839,-0.33514 1.07244,-0.4692 2.34597,-0.067 l 0.33514,0.20108 q 0.53622,0.33514 0.60325,0.87136 0.067,0.53623 -0.13406,1.13948 -0.13405,0.60325 -0.46919,1.2065 -0.26811,0.53622 -0.46919,0.93838 -0.40217,0.60325 -0.73731,1.27353 -0.33514,0.60325 -0.73731,1.27353 l -1.00541,1.80975 q -0.067,0.13406 -0.20109,0.33514 -0.067,0.13405 -0.13405,0.26811 -0.80433,1.34056 -1.54164,2.74814 -0.73731,1.40758 -1.47461,2.94922 -0.60325,0.93839 -0.80433,2.01083 -0.067,0.13406 0.13405,0.33514 h 0.20108 q 0.13406,0 0.13406,-0.067 0.53622,-0.4692 1.07244,-0.87137 0.60325,-0.46919 0.93839,-1.00541 0.13406,-0.067 0.20109,-0.13406 0.067,-0.13405 0.13405,-0.20108 0.40217,-0.33514 1.6757,-1.54164 1.27352,-1.2065 2.81516,-2.81517 1.60867,-1.67569 3.21734,-3.48544 1.60866,-1.87678 2.81516,-3.41842 z"
         style="font-style:normal;font-variant:normal;font-weight:normal;font-stretch:normal;font-size:67.02777863px;font-family:Abuget;-inkscape-font-specification:Abuget;fill:#050000;fill-opacity:1;stroke:#000000;stroke-width:1;stroke-miterlimit:4;stroke-dasharray:none;stroke-opacity:1;paint-order:markers fill stroke"
         id="path5248"
         inkscape:connector-curvature="0" />
      <path
         d="m 128.60192,133.1695 q 0,0.20108 -0.067,0.46919 0,0.53622 0.60325,0.53622 h 0.67028 q 0.53622,-0.13405 1.40758,-0.13405 0.93839,0 1.47461,-0.13406 h 0.93839 q 0.13406,0.13406 0.13406,0.26811 0.26811,0.40217 -0.067,0.60325 -0.067,0.20109 -0.20109,0.26811 -0.067,0 -0.20108,0.13406 -0.26811,0.26811 -0.40217,0.26811 -0.7373,0.20108 -1.74272,0.33514 -0.93839,0.13406 -1.60866,0.33514 -1.07245,0.46919 -2.07787,0.46919 -0.13405,0.067 -0.26811,0.13406 -0.067,0.067 -0.20108,0.13405 -0.13406,0.13406 -0.20108,0.26812 0,0.067 -0.067,0.13405 -0.20108,0.26811 -0.26811,0.4692 -0.067,0.13405 -0.20109,0.26811 -0.7373,1.54164 -2.14488,2.81516 -1.34056,1.27353 -2.48003,2.14489 -0.4692,0.40217 -1.34056,0.53622 h -0.46919 q -0.20109,0 -0.4692,-0.13405 -0.80433,-0.20108 -1.2065,-0.67028 -0.40216,-0.46919 -0.60325,-1.2065 -0.067,-0.13405 -0.067,-0.20108 -0.13406,-0.53622 0.067,-1.00542 0.067,-0.20108 0.20109,-0.33514 0.067,-0.13405 0.067,-0.33514 0.26812,-0.53622 0.33514,-0.80433 0.26811,-0.93839 0.53623,-1.54164 0.20108,-0.60325 0.60325,-1.54164 0.20108,-0.46919 0.40216,-0.93839 0.20109,-0.46919 0.4692,-0.93839 0.26811,-0.46919 0.53622,-0.87136 0.33514,-0.40216 0.67028,-0.80433 0.33514,-0.53622 0.60325,-1.00542 0.26811,-0.46919 0.60325,-1.00541 0.26811,-0.40217 0.7373,-0.4692 0.26811,-0.26811 0.73731,-0.26811 0.7373,-0.13405 1.67569,-0.26811 0.93839,-0.13406 1.47461,0.40217 0.13406,0.13405 0.26811,0.20108 0.13406,0 0.26812,0.13406 0.20108,0.33513 0.33513,0.60325 0.13406,0.26811 0.33514,0.60325 0.13406,0.33513 0.20109,0.67027 0.067,0.26811 0,0.67028 z m -3.88761,2.81516 q 0,-0.26811 -0.067,-0.33514 -0.33514,-0.40216 -0.53622,-0.80433 -0.20109,-0.40217 -0.40217,-0.80433 -0.067,-0.13406 -0.33514,-0.26811 -0.067,-0.067 -0.33514,-0.067 -0.13405,0 -0.33514,0.20108 -0.33514,0.4692 -0.67028,1.07245 -0.7373,1.34055 -1.13947,2.413 -0.40216,1.07244 -0.80433,2.54705 v 0.20109 q -0.067,0.13405 -0.067,0.26811 0.067,0.13405 0.20108,0.13405 0.20109,0.13406 0.33514,0 1.40759,-0.53622 2.413,-1.80975 1.00542,-1.27353 1.6757,-2.413 0.067,-0.13405 0.067,-0.33514 z m 2.14488,-4.62491 q 0,-0.13406 -0.13405,-0.26811 -0.26811,0 -0.26811,0.067 -0.93839,0.73731 -1.13947,1.94381 -0.067,0.13405 -0.067,0.26811 0.067,0.067 0.067,0.20108 0,0.067 0.13405,0.33514 0.13406,0.13406 0.26811,0.13406 0.20109,0 0.33514,-0.13406 0.20108,-0.20108 0.33514,-0.40216 0.26811,-0.40217 0.33514,-0.93839 0.067,-0.53623 0.13405,-1.07245 z"
         style="font-style:normal;font-variant:normal;font-weight:normal;font-stretch:normal;font-size:67.02777863px;font-family:Abuget;-inkscape-font-specification:Abuget;fill:#050000;fill-opacity:1;stroke:#000000;stroke-width:1;stroke-miterlimit:4;stroke-dasharray:none;stroke-opacity:1;paint-order:markers fill stroke"
         id="path5250"
         inkscape:connector-curvature="0" />
      <path
         d="m 137.90097,140.94472 q -0.13405,0.13405 -0.20108,0.20108 0,0.067 -0.13406,0.13406 -0.067,0.13405 -0.33513,0.40216 h -0.067 l -0.20109,0.20109 q -0.33513,0.40216 -0.80433,0.80433 -0.40217,0.40217 -0.80433,0.73731 -0.87136,0.87136 -2.01084,1.07244 H 133.142 q -0.67028,0.13406 -1.27353,-0.13405 -0.53622,-0.26812 -1.07244,-0.73731 -0.73731,-0.73731 -0.53622,-1.67569 v -0.13406 q 0.20108,-1.07244 0.46919,-2.07786 0.20108,-1.00542 0.46919,-1.94381 l 1.40759,-3.82058 q 0.20108,-0.87136 0.67028,-1.80975 1.07244,-2.48003 2.14489,-4.89303 1.07244,-2.413 2.21191,-4.75897 l 0.13406,-0.46919 q 0.26811,-0.87137 0.60325,-1.54164 0.33514,-0.67028 0.87136,-1.40759 0.13405,-0.13405 0.13405,-0.33514 0.067,-0.26811 0.20109,-0.60325 l 2.61408,-6.7698 q 0.13406,-0.4692 0.33514,-0.87136 0.20108,-0.4692 0.40217,-0.93839 0.20108,-0.33514 0.20108,-0.67028 0.067,-0.40217 0.20108,-0.7373 0.20109,-0.60325 0.67028,-0.67028 0.26811,-0.13406 0.4692,-0.13406 0.20108,0 0.33513,-0.067 0.33514,0.067 0.40217,0.13406 0.26811,0.13406 0.4692,0.26811 0.26811,0.40217 0.20108,0.87136 v 0.67028 q -0.13406,0.26811 -0.20108,0.53622 0,0.20109 -0.13406,0.33514 -0.40217,0.93839 -0.80433,1.87678 -0.33514,0.87136 -0.80434,1.74272 -1.00541,2.07786 -1.9438,4.0887 -0.87136,2.01083 -1.6757,4.08869 -0.40216,1.00542 -0.80433,2.01083 -0.33514,1.00542 -0.80433,2.01084 l -2.01084,4.28977 q -0.20108,0.60325 -0.46919,1.2065 -0.20108,0.53623 -0.4692,1.07245 -0.13405,0.33514 -0.33513,0.80433 -0.13406,0.40217 -0.33514,0.80434 -1.2065,2.88219 -2.07787,6.0325 0,0.13405 -0.067,0.40216 0,0.20109 0,0.53622 0,0 0,0.26812 0,0.53622 0.46919,0.40216 0.20108,-0.067 0.33514,-0.13405 0.20108,-0.13406 0.40217,-0.26811 0.40216,-0.40217 0.87136,-0.60325 0.46919,-0.26812 0.93839,-0.67028 l 0.26811,-0.26811 h 0.067 l 0.7373,-0.67028 v 0.067 q 0.4692,-0.40217 0.87136,-0.87136 0.13406,-0.20109 0.26811,-0.33514 0.20109,-0.13406 0.33514,-0.26811 l 2.21192,-1.74273 q 0.40217,-0.33514 0.73731,-0.60325 0.40216,-0.26811 0.87136,-0.60325 h 0.13405 q 0.067,0.13406 0.067,0.33514 -0.13406,0.33514 -0.33514,0.67028 -0.13405,0.26811 -0.46919,0.46919 -0.13406,0.13406 -0.26811,0.26812 -0.13406,0.13405 -0.26812,0.26811 -0.33513,0.33514 -0.53622,0.7373 -0.20108,0.33514 -0.53622,0.67028 -0.33514,0.26811 -0.60325,0.60325 -0.20108,0.26811 -0.46919,0.60325 l -0.87137,1.13947 q -0.13405,0.13406 -0.20108,0.20109 0,0.067 -0.13405,0.13405 z"
         style="font-style:normal;font-variant:normal;font-weight:normal;font-stretch:normal;font-size:67.02777863px;font-family:Abuget;-inkscape-font-specification:Abuget;fill:#050000;fill-opacity:1;stroke:#000000;stroke-width:1;stroke-miterlimit:4;stroke-dasharray:none;stroke-opacity:1;paint-order:markers fill stroke"
         id="path5252"
         inkscape:connector-curvature="0" />
      <path
         d="m 149.54809,133.1695 q 0,0.20108 -0.067,0.46919 0,0.53622 0.60325,0.53622 h 0.67028 q 0.53622,-0.13405 1.40758,-0.13405 0.93839,0 1.47462,-0.13406 h 0.93838 q 0.13406,0.13406 0.13406,0.26811 0.26811,0.40217 -0.067,0.60325 -0.067,0.20109 -0.20108,0.26811 -0.067,0 -0.20108,0.13406 -0.26812,0.26811 -0.40217,0.26811 -0.73731,0.20108 -1.74272,0.33514 -0.93839,0.13406 -1.60867,0.33514 -1.07244,0.46919 -2.07786,0.46919 -0.13406,0.067 -0.26811,0.13406 -0.067,0.067 -0.20109,0.13405 -0.13405,0.13406 -0.20108,0.26812 0,0.067 -0.067,0.13405 -0.20108,0.26811 -0.26811,0.4692 -0.067,0.13405 -0.20108,0.26811 -0.73731,1.54164 -2.14489,2.81516 -1.34056,1.27353 -2.48003,2.14489 -0.46919,0.40217 -1.34055,0.53622 h -0.4692 q -0.20108,0 -0.46919,-0.13405 -0.80434,-0.20108 -1.2065,-0.67028 -0.40217,-0.46919 -0.60325,-1.2065 -0.067,-0.13405 -0.067,-0.20108 -0.13406,-0.53622 0.067,-1.00542 0.067,-0.20108 0.20108,-0.33514 0.067,-0.13405 0.067,-0.33514 0.26811,-0.53622 0.33514,-0.80433 0.26811,-0.93839 0.53622,-1.54164 0.20108,-0.60325 0.60325,-1.54164 0.20108,-0.46919 0.40217,-0.93839 0.20108,-0.46919 0.46919,-0.93839 0.26811,-0.46919 0.53622,-0.87136 0.33514,-0.40216 0.67028,-0.80433 0.33514,-0.53622 0.60325,-1.00542 0.26811,-0.46919 0.60325,-1.00541 0.26811,-0.40217 0.73731,-0.4692 0.26811,-0.26811 0.7373,-0.26811 0.73731,-0.13405 1.6757,-0.26811 0.93839,-0.13406 1.47461,0.40217 0.13405,0.13405 0.26811,0.20108 0.13405,0 0.26811,0.13406 0.20108,0.33513 0.33514,0.60325 0.13405,0.26811 0.33514,0.60325 0.13405,0.33513 0.20108,0.67027 0.067,0.26811 0,0.67028 z m -3.88761,2.81516 q 0,-0.26811 -0.067,-0.33514 -0.33514,-0.40216 -0.53622,-0.80433 -0.20108,-0.40217 -0.40217,-0.80433 -0.067,-0.13406 -0.33514,-0.26811 -0.067,-0.067 -0.33513,-0.067 -0.13406,0 -0.33514,0.20108 -0.33514,0.4692 -0.67028,1.07245 -0.73731,1.34055 -1.13947,2.413 -0.40217,1.07244 -0.80434,2.54705 v 0.20109 q -0.067,0.13405 -0.067,0.26811 0.067,0.13405 0.20108,0.13405 0.20108,0.13406 0.33514,0 1.40758,-0.53622 2.413,-1.80975 1.00541,-1.27353 1.67569,-2.413 0.067,-0.13405 0.067,-0.33514 z m 2.14489,-4.62491 q 0,-0.13406 -0.13406,-0.26811 -0.26811,0 -0.26811,0.067 -0.93839,0.73731 -1.13947,1.94381 -0.067,0.13405 -0.067,0.26811 0.067,0.067 0.067,0.20108 0,0.067 0.13406,0.33514 0.13405,0.13406 0.26811,0.13406 0.20108,0 0.33514,-0.13406 0.20108,-0.20108 0.33513,-0.40216 0.26812,-0.40217 0.33514,-0.93839 0.067,-0.53623 0.13406,-1.07245 z"
         style="font-style:normal;font-variant:normal;font-weight:normal;font-stretch:normal;font-size:67.02777863px;font-family:Abuget;-inkscape-font-specification:Abuget;fill:#050000;fill-opacity:1;stroke:#000000;stroke-width:1;stroke-miterlimit:4;stroke-dasharray:none;stroke-opacity:1;paint-order:markers fill stroke"
         id="path5254"
         inkscape:connector-curvature="0" />
      <path
         d="m 161.46124,133.1695 q 0,0.20108 -0.067,0.46919 0,0.53622 0.60325,0.53622 h 0.67028 q 0.53622,-0.13405 1.40758,-0.13405 0.93839,0 1.47461,-0.13406 h 0.93839 q 0.13406,0.13406 0.13406,0.26811 0.26811,0.40217 -0.067,0.60325 -0.067,0.20109 -0.20108,0.26811 -0.067,0 -0.20109,0.13406 -0.26811,0.26811 -0.40216,0.26811 -0.73731,0.20108 -1.74273,0.33514 -0.93838,0.13406 -1.60866,0.33514 -1.07245,0.46919 -2.07786,0.46919 -0.13406,0.067 -0.26811,0.13406 -0.067,0.067 -0.20109,0.13405 -0.13405,0.13406 -0.20108,0.26812 0,0.067 -0.067,0.13405 -0.20108,0.26811 -0.26811,0.4692 -0.067,0.13405 -0.20108,0.26811 -0.73731,1.54164 -2.14489,2.81516 -1.34056,1.27353 -2.48003,2.14489 -0.46919,0.40217 -1.34056,0.53622 h -0.46919 q -0.20108,0 -0.4692,-0.13405 -0.80433,-0.20108 -1.2065,-0.67028 -0.40216,-0.46919 -0.60325,-1.2065 -0.067,-0.13405 -0.067,-0.20108 -0.13406,-0.53622 0.067,-1.00542 0.067,-0.20108 0.20109,-0.33514 0.067,-0.13405 0.067,-0.33514 0.26811,-0.53622 0.33513,-0.80433 0.26812,-0.93839 0.53623,-1.54164 0.20108,-0.60325 0.60325,-1.54164 0.20108,-0.46919 0.40216,-0.93839 0.20109,-0.46919 0.4692,-0.93839 0.26811,-0.46919 0.53622,-0.87136 0.33514,-0.40216 0.67028,-0.80433 0.33514,-0.53622 0.60325,-1.00542 0.26811,-0.46919 0.60325,-1.00541 0.26811,-0.40217 0.7373,-0.4692 0.26812,-0.26811 0.73731,-0.26811 0.73731,-0.13405 1.67569,-0.26811 0.93839,-0.13406 1.47462,0.40217 0.13405,0.13405 0.26811,0.20108 0.13405,0 0.26811,0.13406 0.20108,0.33513 0.33514,0.60325 0.13405,0.26811 0.33514,0.60325 0.13405,0.33513 0.20108,0.67027 0.067,0.26811 0,0.67028 z m -3.88761,2.81516 q 0,-0.26811 -0.067,-0.33514 -0.33514,-0.40216 -0.53622,-0.80433 -0.20109,-0.40217 -0.40217,-0.80433 -0.067,-0.13406 -0.33514,-0.26811 -0.067,-0.067 -0.33514,-0.067 -0.13405,0 -0.33514,0.20108 -0.33513,0.4692 -0.67027,1.07245 -0.73731,1.34055 -1.13948,2.413 -0.40216,1.07244 -0.80433,2.54705 v 0.20109 q -0.067,0.13405 -0.067,0.26811 0.067,0.13405 0.20109,0.13405 0.20108,0.13406 0.33513,0 1.40759,-0.53622 2.41301,-1.80975 1.00541,-1.27353 1.67569,-2.413 0.067,-0.13405 0.067,-0.33514 z m 2.14489,-4.62491 q 0,-0.13406 -0.13406,-0.26811 -0.26811,0 -0.26811,0.067 -0.93839,0.73731 -1.13947,1.94381 -0.067,0.13405 -0.067,0.26811 0.067,0.067 0.067,0.20108 0,0.067 0.13405,0.33514 0.13406,0.13406 0.26811,0.13406 0.20109,0 0.33514,-0.13406 0.20109,-0.20108 0.33514,-0.40216 0.26811,-0.40217 0.33514,-0.93839 0.067,-0.53623 0.13406,-1.07245 z"
         style="font-style:normal;font-variant:normal;font-weight:normal;font-stretch:normal;font-size:67.02777863px;font-family:Abuget;-inkscape-font-specification:Abuget;fill:#050000;fill-opacity:1;stroke:#000000;stroke-width:1;stroke-miterlimit:4;stroke-dasharray:none;stroke-opacity:1;paint-order:markers fill stroke"
         id="path5256"
         inkscape:connector-curvature="0" />
      <path
         d="m 154.1374,168.96233 q -0.20109,0 -0.26811,0 -0.13406,0.067 -0.26811,0 -0.13406,-0.067 -0.33514,-0.13406 -0.20109,0 -0.33514,-0.13405 -0.73731,-0.33514 -1.13947,-0.87136 -0.26812,-0.53622 -0.26812,-1.00542 0.13406,-0.67028 0.33514,-1.34055 0.20109,-0.67028 0.4692,-1.27353 0.60325,-0.73731 0.80433,-1.6757 0.40217,-0.80433 0.87136,-1.60866 0.4692,-0.73731 1.07245,-1.47461 0.20108,-0.33514 0.40216,-0.60325 0.20109,-0.20109 0.33514,-0.53623 0.73731,-1.34055 1.6757,-2.21191 0.40216,-0.33514 0.7373,-0.73731 0.33514,-0.40217 0.67028,-0.80433 1.07244,-1.13947 2.14489,-2.27895 1.07244,-1.2065 2.27894,-2.21191 0.13406,-0.13406 0.33514,-0.26811 0.13406,-0.20109 0.26811,-0.33514 0.40217,-0.4692 0.80434,-0.87136 0.46919,-0.40217 1.13947,-0.73731 0.26811,-0.20108 0.46919,-0.46919 0.26811,-0.26812 0.53623,-0.53623 0.26811,-0.26811 0.53622,-0.53622 0.26811,-0.26811 0.60325,-0.53622 0.067,-0.067 0.13405,-0.067 0.067,-0.067 0.13406,-0.13405 0.87136,-0.67028 1.40758,-1.40759 0.53622,-0.80433 1.07245,-1.74272 0.067,-0.067 0.067,-0.13406 0,-0.067 0.067,-0.13405 0.40217,-1.13947 0.73731,-2.34597 0.33514,-1.27353 0.46919,-2.54706 0,-0.26811 -0.067,-0.33514 0,-0.13405 -0.20108,-0.13405 -0.13405,0 -0.20108,0.067 -0.4692,0.40217 -0.80434,0.93839 -0.7373,0.93839 -1.47461,1.87678 -0.7373,0.87136 -1.60866,1.74272 -0.26811,0.33514 -0.53623,0.60325 -0.20108,0.26811 -0.53622,0.53623 -0.20108,0.26811 -0.53622,0.46919 -0.33514,0.13406 -0.67028,0.33514 -1.07244,0.53622 -2.21191,0.20108 -1.13948,-0.33514 -1.74273,-1.40758 0,-0.20108 -0.067,-0.40217 -0.067,-0.26811 0,-0.46919 0.20108,-1.87678 1.07244,-3.28436 0.46919,-0.87136 1.00542,-1.6757 0.46919,-0.80433 1.07244,-1.54164 0.067,-0.13405 0.13406,-0.26811 0.13405,-0.20108 0.20108,-0.40216 0,-0.4692 0.46919,-1.07245 0.53623,-0.53622 0.93839,-0.93839 0.40217,-0.46919 0.93839,-1.00541 0.67028,-0.73731 1.47461,-1.00542 0.87136,-0.33514 1.74273,-0.40217 0.40216,0 0.60325,0.067 0.93838,0 1.34055,0.67028 0.067,0.13405 0.40217,0.33514 0,0.13405 0.33514,0.13405 0.20108,-0.13405 0.33514,-0.26811 0.13405,-0.20108 0.33513,-0.26811 0.13406,-0.13406 0.26812,-0.067 0.13405,0 0.20108,0.13406 0.33514,0.60325 0.26811,1.2065 0,0.13405 -0.067,0.33514 0,0.20108 0,0.33514 -0.13405,0.33513 0,0.53622 0.20109,0.80433 0.067,1.34055 -0.13406,1.07245 -0.20108,2.07786 -0.067,0.93839 -0.20109,2.01084 -0.26811,0.7373 -0.067,1.87678 0.067,0.26811 -0.13406,0.87136 -0.13406,0.20108 -0.20108,0.46919 -0.067,0.20108 -0.20109,0.40217 -0.67027,0.93839 -0.87136,1.74272 -0.13405,0.40217 -0.33514,0.80433 -0.20108,0.40217 -0.33514,0.80434 -0.60325,1.74272 -1.40758,3.48544 -0.7373,1.6757 -1.54164,3.28436 -0.46919,0.87136 -1.00541,1.74272 -0.4692,0.87137 -1.00542,1.74273 -0.53622,0.93839 -1.00542,1.74272 -0.46919,0.87136 -1.07244,1.74272 -0.73731,1.13947 -1.54164,2.27895 -0.80433,1.13947 -1.74272,2.27894 -1.13948,1.34056 -2.27895,2.48003 -0.53622,0.46919 -1.13947,0.87136 -0.60325,0.46919 -1.2065,1.00542 -0.33514,0.13405 -0.67028,0.46919 -0.53622,0.26811 -1.00541,0.40217 -0.4692,0.20108 -1.00542,0.20108 z m 14.07583,-19.70617 q 0.20108,-0.53622 0.40217,-1.07244 0.20108,-0.53622 0.33514,-1.07245 v -0.067 -0.13406 q -0.20109,-0.067 -0.40217,0 -0.73731,0.60325 -1.40758,1.2065 -0.67028,0.60325 -1.27353,1.27353 -0.73731,0.53622 -1.34056,1.13947 -0.53622,0.60325 -1.07244,1.2065 -1.07245,1.13947 -2.01083,2.27895 -1.00542,1.13947 -1.94381,2.34597 -0.53622,0.67028 -0.93839,1.27353 -0.46919,0.67027 -0.93839,1.27352 -0.7373,0.93839 -1.27353,2.01084 -0.53622,1.13947 -1.07244,2.34597 -0.40217,0.87136 -0.87136,2.07786 -0.067,0.33514 -0.067,0.60325 -0.067,0.26811 -0.067,0.60325 -0.067,0.13406 0.13406,0.26811 0.20108,0.13406 0.33514,0.13406 0.33514,0 0.7373,-0.26811 0.80434,-0.60325 1.54164,-0.87137 0.13406,-0.13405 0.4692,-0.26811 0.53622,-0.53622 1.07244,-1.00541 0.53622,-0.4692 1.00542,-1.07245 0.53622,-0.7373 1.00541,-1.07244 0.73731,-0.73731 1.34056,-1.74272 0.26811,-0.33514 0.53622,-0.60325 0.20109,-0.26812 0.40217,-0.53623 0.33514,-0.33514 0.46919,-0.87136 0.26811,-0.67028 0.4692,-0.93839 0.33514,-0.67027 0.7373,-1.27352 0.40217,-0.60325 0.87136,-1.27353 0.73731,-1.07245 1.2065,-2.07786 0.13406,-0.33514 0.26812,-0.53623 0.20108,-0.26811 0.33513,-0.53622 0.13406,-0.067 0.13406,-0.20108 0.067,-0.13406 0.067,-0.26811 0.26811,-0.53622 0.40216,-1.07245 0.20109,-0.60325 0.40217,-1.2065 z m 3.6195,-17.09208 q 0,-0.33514 -0.40217,-0.46919 -0.20108,0 -0.40216,0.067 -0.13406,0 -0.26811,0 -0.60325,0.4692 -1.13948,0.93839 -0.53622,0.40217 -1.07244,0.93839 -0.46919,0.53622 -0.93839,1.07245 -0.46919,0.53622 -1.00542,1.13947 -0.7373,0.93839 -1.34055,1.87678 -0.53622,0.93838 -1.07245,2.01083 v 0.20108 0.13406 q 0.13406,0.20108 0.40217,0.13405 0.60325,-0.20108 1.27353,-0.67027 0.13405,-0.13406 0.26811,-0.26812 0.13406,-0.20108 0.26811,-0.33513 0.87136,-0.93839 1.6757,-1.80975 0.80433,-0.93839 1.60866,-1.87678 0.53622,-0.53622 0.93839,-1.13947 0.4692,-0.60325 0.93839,-1.13948 0.067,-0.13405 0.13406,-0.20108 0.067,-0.13406 0.13405,-0.26811 z"
         style="font-style:normal;font-variant:normal;font-weight:normal;font-stretch:normal;font-size:67.02777863px;font-family:Abuget;-inkscape-font-specification:Abuget;fill:#050000;fill-opacity:1;stroke:#000000;stroke-width:1;stroke-miterlimit:4;stroke-dasharray:none;stroke-opacity:1;paint-order:markers fill stroke"
         id="path5258"
         inkscape:connector-curvature="0" />
      <path
         d="m 175.93296,140.20741 q 0.13405,-0.40216 0.20108,-0.60325 0.067,-0.26811 0.20108,-0.40216 0.53623,-1.60867 1.60867,-3.08328 1.07245,-1.54164 1.54164,-2.54706 0.13406,-0.26811 0.20108,-0.53622 0.067,-0.26811 0.20109,-0.60325 0.13405,-0.33514 0.26811,-0.67028 0.20108,-0.33514 0.46919,-0.53622 0.13406,-0.33514 0.33514,-0.40217 0.20108,-0.067 0.53622,-0.13405 h 0.20109 q 0.80433,-0.067 1.2065,0.80433 0.20108,0.20109 0.067,0.67028 -0.26811,0.53622 -0.40216,0.67028 -0.60325,0.93839 -1.2065,1.67569 -0.53622,0.73731 -1.00542,1.74272 -0.33514,0.53623 -0.7373,1.34056 -0.40217,0.80433 -0.67028,1.34056 -0.13406,0.13405 -0.33514,0.67027 -0.13406,0.53623 -0.13406,0.73731 -0.067,0.13405 0.20109,0.20108 0.26811,0.067 0.40216,0.067 0.60325,-0.067 1.47461,-0.40217 0.93839,-0.33514 1.94381,-0.7373 1.07244,-0.4692 2.14489,-1.00542 1.07244,-0.60325 2.07786,-1.2065 0.60325,-0.26811 1.07244,-0.53622 0.4692,-0.26811 1.07245,-0.33514 0.13405,0.067 0.13405,0.33514 v 0.20108 q -0.20108,0.33514 -0.53622,0.60325 -0.33514,0.20109 -0.67028,0.4692 -0.7373,0.60325 -1.9438,1.40758 -1.13947,0.80433 -2.413,1.60867 -1.2065,0.7373 -2.413,1.40758 -1.13947,0.60325 -1.87678,0.87136 -0.7373,0.33514 -1.60867,0.13406 l -0.60325,-0.20109 q -0.87136,-0.40216 -1.07244,-1.34055 -0.13406,-0.20109 -0.067,-0.26811 0.067,-0.067 0,-0.26811 0,-0.53623 0.067,-0.80434 0,-0.13405 0.067,-0.26811 0.067,-0.13405 0,-0.067 z m 5.83141,-11.5958 q 0.067,-0.13406 0.067,-0.26811 0,-0.20109 0.067,-0.33514 0.13406,-0.53622 0.33514,-0.93839 0.20108,-0.40217 0.40217,-0.80433 0.067,-0.13406 0.13405,-0.20109 0.13406,-0.067 0.26811,-0.20108 1.13947,-0.33514 1.87678,0.40217 0.60325,0.60325 0.20108,1.07244 -0.26811,0.73731 -1.00541,1.47461 -0.53623,0.60325 -1.47461,0.73731 -0.13406,0 -0.20109,0 -0.067,-0.067 -0.13405,-0.067 -0.4692,-0.13406 -0.4692,-0.4692 0,-0.20108 -0.067,-0.40216 z"
         style="font-style:normal;font-variant:normal;font-weight:normal;font-stretch:normal;font-size:67.02777863px;font-family:Abuget;-inkscape-font-specification:Abuget;fill:#050000;fill-opacity:1;stroke:#000000;stroke-width:1;stroke-miterlimit:4;stroke-dasharray:none;stroke-opacity:1;paint-order:markers fill stroke"
         id="path5260"
         inkscape:connector-curvature="0" />
      <path
         d="m 197.86779,142.55339 q -0.87136,0 -1.67569,-0.26812 -0.13406,-0.067 -0.26811,-0.13405 -0.13406,-0.13406 -0.26812,-0.20108 -0.60325,-0.73731 -0.53622,-1.40759 0.067,-0.40216 0.20109,-0.7373 0.13405,-0.33514 0.067,-0.60325 0,-0.26811 -0.26811,-0.26811 -0.067,0.067 -0.13405,0.067 -0.067,0 -0.13406,0.067 -0.46919,0.67028 -0.93839,1.00542 -0.33514,0.26811 -0.60325,0.46919 -0.26811,0.20109 -0.60325,0.40217 -0.33514,0.26811 -0.67028,0.60325 -0.26811,0.26811 -0.67027,0.46919 -1.47461,1.13948 -3.48545,0.93839 -0.53622,0 -1.2065,-0.53622 -0.26811,-0.40217 -0.46919,-0.60325 -0.4692,-0.60325 -0.067,-1.13947 0.20108,-0.4692 0.40217,-0.93839 0.13405,-0.4692 0.13405,-1.00542 0.20109,-0.67028 0.40217,-0.80433 0.33514,-0.53622 0.67028,-0.93839 0.33514,-0.40217 0.80433,-0.80433 0.33514,-0.33514 0.67028,-0.67028 0.33514,-0.40217 0.67028,-0.73731 0.20108,-0.26811 0.46919,-0.46919 0.26811,-0.20108 0.53622,-0.53622 0.33514,-0.26811 0.53622,-0.53623 0.26812,-0.26811 0.53623,-0.53622 1.00541,-1.07244 2.14489,-1.47461 l 1.80975,-0.80433 q 0.20108,-0.13406 0.46919,-0.13406 0.26811,-0.067 0.53622,-0.13405 0.40217,-0.20109 0.87136,0 h 0.13406 q 0.40217,0.20108 0.87136,0.26811 0.53622,0.067 1.00542,0.13405 0.67027,0.13406 0.87136,0.53623 0.26811,0.33513 0.13405,0.80433 0,0.93839 -0.46919,1.87678 -0.20108,0.53622 -0.4692,1.07244 -0.26811,0.53622 -0.40216,1.07245 -0.13406,0.33513 -0.26811,0.67027 -0.13406,0.26811 -0.26811,0.60325 -0.20109,0.53623 -0.40217,1.07245 -0.20108,0.53622 -0.33514,1.00541 v 0.4692 q 0,0.067 0.13406,0.20108 0.13405,0.067 0.26811,0.067 0.33514,0 0.53622,-0.067 0.53622,-0.20108 1.07244,-0.46919 0.60325,-0.26811 1.13948,-0.53622 0.80433,-0.53623 1.67569,-1.07245 0.87136,-0.60325 1.67569,-1.13947 1.13948,-0.60325 2.27895,-1.00542 0.20108,-0.067 0.46919,-0.067 0.13406,0 0.26811,0.13406 0.13406,0.13406 0.13406,0.26811 l -0.40217,0.60325 q -0.40216,0.40217 -0.80433,0.80433 -0.40217,0.40217 -0.80433,0.73731 -0.93839,0.60325 -1.74273,1.27353 -0.80433,0.67028 -1.67569,1.27353 -0.46919,0.33513 -1.00542,0.67027 -0.53622,0.26811 -1.07244,0.60325 -1.00542,0.53623 -2.48003,0.53623 z m -0.067,-10.38931 q 0,-0.40217 -0.33514,-0.40217 -0.26811,0.13406 -0.46919,0.13406 -0.20108,0 -0.40217,0.13405 -0.53622,0.13406 -0.93839,0.40217 -0.40216,0.20108 -0.80433,0.53622 -0.53622,0.40217 -1.07244,0.93839 -0.53623,0.53622 -1.07245,1.07245 -0.80433,0.93839 -1.54164,2.01083 -0.7373,1.00542 -1.47461,2.01083 v 0.26811 q -0.067,0.13406 -0.067,0.20109 0.067,0 0.067,0.067 h 0.4692 q 0.20108,-0.20109 0.40216,-0.26812 0.20109,-0.13405 0.40217,-0.33513 0.87136,-0.73731 1.74272,-1.47462 0.87136,-0.80433 1.6757,-1.54163 0.7373,-0.67028 1.40758,-1.27353 0.73731,-0.67028 1.40758,-1.34056 0.20109,-0.20108 0.33514,-0.33514 0.13406,-0.20108 0.26811,-0.53622 0.067,-0.13405 0,-0.13405 0,-0.067 0,-0.13406 z"
         style="font-style:normal;font-variant:normal;font-weight:normal;font-stretch:normal;font-size:67.02777863px;font-family:Abuget;-inkscape-font-specification:Abuget;fill:#050000;fill-opacity:1;stroke:#000000;stroke-width:1;stroke-miterlimit:4;stroke-dasharray:none;stroke-opacity:1;paint-order:markers fill stroke"
         id="path5262"
         inkscape:connector-curvature="0" />
    </g>
  </g>
</svg>
