<?xml version="1.0" encoding="UTF-8" standalone="no"?>
<svg
   xmlns:dc="http://purl.org/dc/elements/1.1/"
   xmlns:cc="http://creativecommons.org/ns#"
   xmlns:rdf="http://www.w3.org/1999/02/22-rdf-syntax-ns#"
   xmlns:svg="http://www.w3.org/2000/svg"
   xmlns="http://www.w3.org/2000/svg"
   xmlns:sodipodi="http://sodipodi.sourceforge.net/DTD/sodipodi-0.dtd"
   xmlns:inkscape="http://www.inkscape.org/namespaces/inkscape"
   width="100"
   height="100"
   viewBox="0 0 100 100"
   version="1.1"
   id="svg4"
   sodipodi:docname="Feather-communication-phone.svg"
   style="fill:none;stroke:#000000;stroke-width:2;stroke-linecap:round;stroke-linejoin:round"
   inkscape:version="0.92.4 (5da689c313, 2019-01-14)">
  <metadata
     id="metadata10">
    <rdf:RDF>
      <cc:Work
         rdf:about="">
        <dc:format>image/svg+xml</dc:format>
        <dc:type
           rdf:resource="http://purl.org/dc/dcmitype/StillImage" />
        <dc:title></dc:title>
      </cc:Work>
    </rdf:RDF>
  </metadata>
  <defs
     id="defs8" />
  <sodipodi:namedview
     pagecolor="#ffffff"
     bordercolor="#666666"
     borderopacity="1"
     objecttolerance="10"
     gridtolerance="10"
     guidetolerance="10"
     inkscape:pageopacity="0"
     inkscape:pageshadow="2"
     inkscape:window-width="1920"
     inkscape:window-height="1051"
     id="namedview6"
     showgrid="false"
     inkscape:zoom="9.8333333"
     inkscape:cx="52.677966"
     inkscape:cy="28.271186"
     inkscape:window-x="-9"
     inkscape:window-y="-9"
     inkscape:window-maximized="1"
     inkscape:current-layer="svg4" />
  <path
     d="M 96.544715,71.527301 V 85.206716 A 9.1380458,9.1196095 0 0 1 86.584246,94.326325 90.420962,90.238534 0 0 1 47.153578,80.327725 89.095946,88.916192 0 0 1 19.739441,52.968896 90.420962,90.238534 0 0 1 5.712541,13.43539 9.1380458,9.1196095 0 0 1 14.804897,3.4950141 h 13.707068 a 9.1380458,9.1196095 0 0 1 9.138046,7.8428659 58.666254,58.547893 0 0 0 3.198317,12.81305 9.1380458,9.1196095 0 0 1 -2.056062,9.621188 l -5.802659,5.790953 a 73.104366,72.956876 0 0 0 27.414137,27.358827 l 5.80266,-5.790953 a 9.1380458,9.1196095 0 0 1 9.640638,-2.05191 58.666254,58.547893 0 0 0 12.838954,3.191862 9.1380458,9.1196095 0 0 1 7.858719,9.256404 z"
     id="path2"
     inkscape:connector-curvature="0"
     style="stroke-width:9.12882328" />
</svg>
