<?xml version="1.0" encoding="UTF-8" standalone="no"?>
<!-- Created with Inkscape (http://www.inkscape.org/) -->

<svg
   xmlns:dc="http://purl.org/dc/elements/1.1/"
   xmlns:cc="http://creativecommons.org/ns#"
   xmlns:rdf="http://www.w3.org/1999/02/22-rdf-syntax-ns#"
   xmlns:svg="http://www.w3.org/2000/svg"
   xmlns="http://www.w3.org/2000/svg"
   xmlns:sodipodi="http://sodipodi.sourceforge.net/DTD/sodipodi-0.dtd"
   xmlns:inkscape="http://www.inkscape.org/namespaces/inkscape"
   width="210mm"
   height="297mm"
   viewBox="0 0 210 297"
   version="1.1"
   id="svg8"
   inkscape:version="0.92.4 (5da689c313, 2019-01-14)"
   sodipodi:docname="title.svg">
  <defs
     id="defs2" />
  <sodipodi:namedview
     id="base"
     pagecolor="#ffffff"
     bordercolor="#666666"
     borderopacity="1.0"
     inkscape:pageopacity="0.0"
     inkscape:pageshadow="2"
     inkscape:zoom="0.35"
     inkscape:cx="400"
     inkscape:cy="560"
     inkscape:document-units="mm"
     inkscape:current-layer="layer1"
     showgrid="false"
     inkscape:window-width="1920"
     inkscape:window-height="1051"
     inkscape:window-x="-9"
     inkscape:window-y="-9"
     inkscape:window-maximized="1" />
  <metadata
     id="metadata5">
    <rdf:RDF>
      <cc:Work
         rdf:about="">
        <dc:format>image/svg+xml</dc:format>
        <dc:type
           rdf:resource="http://purl.org/dc/dcmitype/StillImage" />
        <dc:title></dc:title>
      </cc:Work>
    </rdf:RDF>
  </metadata>
  <g
     inkscape:label="Layer 1"
     inkscape:groupmode="layer"
     id="layer1">
    <path
       style="fill:#000000;stroke-width:0.81691021"
       d="m 149.82091,166.783 c -1.08383,-2.43154 -1.06218,-2.89033 0.28023,-5.93928 0.80013,-1.8173 3.62367,-5.6119 6.27452,-8.43244 l 4.81973,-5.12825 -2.40519,-1.17937 c -2.76961,-1.35806 -4.04151,-3.64649 -4.04151,-7.2716 0,-2.31937 -0.199,-2.51125 -2.24335,-2.16315 -1.73755,0.29586 -2.42935,1.03584 -3.06832,3.28199 -2.93985,10.33436 -12.89078,9.82336 -12.89078,-0.66198 0,-2.82553 -0.22981,-3.39274 -1.19968,-2.96097 -0.65983,0.29375 -1.82789,0.53409 -2.59571,0.53409 -0.91539,0 -1.68929,1.03093 -2.24786,2.99443 -1.32941,4.67325 -4.05756,7.56429 -7.13811,7.56429 -5.03125,0 -7.33294,-6.93488 -4.55545,-13.72534 2.24692,-5.49333 5.01244,-3.14308 2.97109,2.52495 -2.73735,7.60056 -0.37391,11.03165 3.88506,5.64008 3.01386,-3.81535 3.19043,-5.57109 0.69305,-6.8912 -2.4515,-1.29585 -4.00866,-5.52482 -2.70522,-7.34689 2.29192,-3.20384 7.58378,-0.30377 7.58378,4.1561 0,1.23334 0.62995,1.564 2.97957,1.564 1.63877,0 3.49151,-0.59392 4.11722,-1.31984 2.68865,-3.1192 4.1346,-0.59794 2.40743,4.19775 -2.73736,7.60056 -0.37391,11.03165 3.88506,5.64008 3.01386,-3.81535 3.19043,-5.57109 0.69304,-6.8912 -2.4515,-1.29585 -4.00865,-5.52482 -2.70522,-7.34689 2.29192,-3.20384 7.58379,-0.30377 7.58379,4.1561 0,1.16812 0.60543,1.564 2.39181,1.564 1.8218,0 3.06564,-0.84677 5.21927,-3.55315 2.71553,-3.4125 2.98865,-3.54178 6.89903,-3.26568 5.73598,0.40501 5.73365,0.2513 0.26819,17.73415 l -1.3493,4.31611 2.00751,1.69656 c 2.77955,2.34902 2.51008,3.21968 -0.83663,2.70314 l -2.84413,-0.43896 -2.27531,5.58066 c -2.48513,6.0953 -6.00667,11.3028 -7.64344,11.3028 -0.57179,0 -1.56816,-1.18579 -2.21417,-2.63509 z m 10.39324,-26.18141 c 1.33775,-1.79131 5.15265,-9.34023 5.15265,-10.19608 0,-0.32044 -0.61874,-0.58262 -1.37498,-0.58262 -1.89787,0 -5.33163,4.36841 -6.20235,7.89058 -1.07531,4.34986 0.19926,5.86805 2.42468,2.88812 z m -31.25226,-8.06705 c 0,-1.9544 -0.97062,-3.44185 -1.95886,-3.0019 -1.32877,0.59156 -1.40877,2.62698 -0.12684,3.22709 1.5065,0.70523 2.0857,0.6427 2.0857,-0.22519 z m 18.96088,0 c 0,-1.9544 -0.97062,-3.44185 -1.95885,-3.0019 -1.32877,0.59156 -1.40877,2.62698 -0.12684,3.22709 1.50649,0.70523 2.08569,0.6427 2.08569,-0.22519 z M 11.34066,150.80216 c -1.13077,-2.45122 -0.4085,-9.69136 1.53052,-15.34212 6.26423,-18.25543 9.90975,-29.3588 9.90975,-30.18266 0,-1.47865 -0.8724,-1.20709 -5.53574,1.72316 -5.03137,3.16151 -7.35766,6.24186 -7.35766,9.74261 0,2.70103 -0.66366,3.15891 -2.12362,1.46515 -1.48179,-1.71908 -1.04242,-6.05589 0.9152,-9.03347 1.00392,-1.52699 3.98161,-4.1097 6.61708,-5.73934 3.90888,-2.41705 5.84337,-3.03062 10.49925,-3.33006 5.0471,-0.324614 6.01465,-0.126254 8.36202,1.7143 7.15958,5.61375 7.01937,18.58901 -0.28124,26.02555 -3.68042,3.74894 -7.87734,6.16951 -13.06868,7.53733 -4.20564,1.10811 -4.2431,1.14688 -5.7179,5.91687 -0.81649,2.64079 -1.3734,6.28626 -1.23758,8.10104 0.27987,3.73953 -1.08223,4.49973 -2.5114,1.40164 z m 14.0948,-21.13722 c 3.67813,-2.13966 5.95493,-4.45984 8.8248,-8.99297 2.78039,-4.3918 3.05843,-11.30246 0.60059,-14.92749 -1.36546,-2.01389 -2.13248,-2.31839 -5.83995,-2.31839 -2.97871,0 -4.02765,0.27888 -3.47231,0.92316 0.55535,0.64428 -0.31365,4.51239 -2.87661,12.80449 -2.01978,6.53474 -4.04613,12.69164 -4.503,13.68202 -0.77935,1.68942 -0.67426,1.7634 1.70103,1.19732 1.39244,-0.33184 3.89689,-1.3975 5.56545,-2.36814 z m 81.06098,19.8454 c -0.44472,-2.05568 0.0862,-5.83902 1.6005,-11.40562 0.44171,-1.62369 0.24244,-1.79314 -1.71639,-1.45961 -1.68581,0.28705 -2.51224,1.15601 -3.4536,3.63134 -1.89802,4.9909 -3.98728,7.14431 -6.93149,7.14431 -2.64106,0 -5.71377,-3.16228 -5.71377,-5.88033 0,-0.72701 -1.15944,0.0628 -2.79136,1.90153 -3.74392,4.21833 -6.13144,4.8664 -8.01043,2.17433 -1.68986,-2.42108 -1.34809,-6.18583 1.05835,-11.65824 0.82856,-1.88419 1.31066,-3.65296 1.07135,-3.9306 -0.72098,-0.83643 -4.07983,3.29879 -9.66095,11.89398 -5.21595,8.03279 -6.854,9.46163 -7.74811,6.7585 -0.30241,-0.91428 -0.96725,-1.19249 -1.96861,-0.82377 -1.04709,0.38555 -2.04371,-0.10888 -3.2413,-1.60803 -1.71297,-2.14434 -1.74607,-2.14902 -3.50559,-0.49607 -0.97697,0.91778 -2.26595,1.6687 -2.86441,1.6687 -1.92037,0 -4.81133,-4.15606 -4.81133,-6.91679 0,-2.52978 -0.0648,-2.57424 -2.49315,-1.70961 -2.27527,0.81012 -2.46689,1.14874 -2.19261,3.87445 0.55548,5.52 -6.1717,10.50781 -9.29112,6.88883 -1.78429,-2.07003 -1.46781,-5.9762 0.68672,-8.47576 1.68806,-1.95839 1.76741,-2.34974 0.78255,-3.85953 -1.71527,-2.62951 -1.34024,-5.54764 1.07274,-8.34704 2.46783,-2.86303 4.94064,-3.26081 7.47394,-1.20226 2.4091,1.95763 2.08156,2.99249 -0.77929,2.46217 -2.02034,-0.37451 -2.84641,0.008 -4.5801,2.11893 -1.85997,2.26506 -1.9753,2.71053 -0.95589,3.69205 0.94378,0.90871 2.08618,0.82511 6.14571,-0.44973 4.46141,-1.40104 5.13986,-1.91484 6.44371,-4.87989 1.71576,-3.90174 2.81276,-4.87761 3.97167,-3.53312 0.61926,0.71844 0.39355,2.05362 -0.8486,5.01978 -1.82245,4.35186 -3.03993,11.79795 -1.92905,11.79795 2.13845,0 7.958,-9.21089 9.03909,-14.30659 0.63123,-2.97528 1.59657,-3.7642 2.9782,-2.43393 0.88635,0.85341 0.84026,1.71243 -0.29914,5.57509 -1.74303,5.909 -2.57246,11.16543 -1.76183,11.16543 1.55543,0 6.25462,-7.09478 8.15911,-12.31851 6.26712,-17.18982 9.42427,-23.75712 11.42092,-23.75712 1.75588,0 1.30803,1.63268 -3.47645,12.67379 -2.49632,5.76074 -4.53876,11.08686 -4.53876,11.83584 0,0.84351 1.1653,-0.0452 3.0619,-2.33505 2.2295,-2.69181 3.66555,-3.69682 5.28236,-3.69682 4.14679,0 4.87293,4.74502 1.87103,12.22641 -1.04767,2.61103 -1.71788,4.96425 -1.48934,5.22938 0.22853,0.26513 2.99059,-2.56408 6.13791,-6.28714 3.14731,-3.72305 6.01914,-6.76919 6.38182,-6.76919 1.36414,0 1.53033,1.79572 0.40073,4.32994 -1.58509,3.5561 -1.53809,8.75923 0.0857,9.4821 1.41193,0.62858 6.33004,-4.94783 6.33004,-7.17732 0,-0.72059 -0.98253,-1.89961 -2.1834,-2.62006 -3.66777,-2.20041 -4.38534,-7.13391 -1.17363,-8.06908 2.88862,-0.8411 5.58883,0.94241 6.12364,4.0447 0.40001,2.32035 0.77588,2.6494 3.02632,2.6494 2.8546,0 2.33705,0.94577 8.66699,-15.83808 4.73143,-12.54541 6.71802,-15.1406 9.07155,-11.85064 0.77342,1.08115 0.7784,2.082 0.0252,5.05939 -1.33831,5.29025 -5.71039,15.03362 -9.21703,20.54053 -3.02513,4.75076 -5.96897,13.67357 -5.98706,18.14686 -0.0127,3.15205 -2.07993,3.23442 -2.75591,0.10982 z m -68.02686,-4.00275 c 0.96545,-1.05224 1.75537,-2.51215 1.75537,-3.24424 0,-0.92199 -0.6993,-0.55382 -2.27531,1.19789 -2.18127,2.42446 -2.86181,3.95952 -1.75536,3.95952 0.28597,0 1.30986,-0.86092 2.2753,-1.91317 z m 63.17702,-13.75687 c -0.006,-0.33439 -0.32167,-1.17646 -0.70063,-1.87125 -0.58793,-1.07793 -0.87445,-1.08472 -1.95296,-0.0463 -1.17738,1.13362 -1.17369,1.29353 0.0539,2.33494 1.2654,1.07346 2.62398,0.85533 2.59967,-0.41739 z m 92.4568,15.89466 c -0.67187,-0.16854 -1.61289,-1.30283 -2.09118,-2.52064 l -0.86961,-2.21421 -2.19728,1.81517 c -2.75842,2.27872 -4.75997,2.30361 -6.49395,0.0807 -1.34638,-1.72598 -1.36225,-1.72598 -3.25358,0 -2.56785,2.34334 -5.85275,2.24439 -7.34131,-0.22114 -1.61708,-2.67844 -1.48077,-6.12048 0.45616,-11.51966 2.04054,-5.68796 3.35121,-7.48671 4.49141,-6.16393 0.60104,0.69731 0.28872,2.70379 -1.13224,7.27385 -2.1379,6.8759 -2.39471,8.84573 -1.15319,8.84573 1.52851,0 5.9912,-4.58778 8.66907,-8.91208 3.59892,-5.81167 6.60284,-7.83656 11.27557,-7.60069 2.03137,0.10254 3.84535,0.64584 4.03107,1.20733 0.18573,0.56149 -0.49759,3.34402 -1.51847,6.18341 -2.13431,5.93613 -3.18249,10.88182 -2.3063,10.88182 0.33152,0 2.54226,-2.42404 4.91275,-5.38675 4.75808,-5.9468 7.22085,-6.46682 4.37032,-0.92281 -3.43475,6.68021 -6.90492,9.91244 -9.84924,9.17386 z m -6.24896,-7.48374 c 3.2115,-3.98005 6.33291,-8.99479 6.33291,-10.17421 0,-2.38993 -5.45516,1.88144 -7.98054,6.24871 -3.67075,6.34808 -2.51981,9.09025 1.64763,3.9255 z M 54.90458,123.20886 c -0.6032,-1.82367 0.29898,-4.16396 1.43752,-3.72897 0.5212,0.19914 1.05101,1.17155 1.17735,2.16092 0.2743,2.14802 -1.97657,3.4978 -2.61487,1.56805 z m 4.80268,0.76641 c -1.16836,-1.35546 -0.49101,-3.83121 1.04819,-3.83121 1.17976,0 1.50943,0.47462 1.32727,1.91084 -0.2517,1.98443 -1.47077,2.96994 -2.37546,1.92037 z m 118.78157,-3.52925 c -0.68713,-2.07736 1.41248,-5.97014 3.39929,-6.30243 2.10271,-0.35168 2.13132,0.98817 0.1024,4.79675 -1.74329,3.27242 -2.77113,3.71438 -3.50169,1.50568 z"
       id="path3724"
       inkscape:connector-curvature="0" />
  </g>
</svg>
