<?xml version="1.0" encoding="UTF-8" standalone="no"?>
<!-- Created with Inkscape (http://www.inkscape.org/) -->

<svg
   xmlns:dc="http://purl.org/dc/elements/1.1/"
   xmlns:cc="http://creativecommons.org/ns#"
   xmlns:rdf="http://www.w3.org/1999/02/22-rdf-syntax-ns#"
   xmlns:svg="http://www.w3.org/2000/svg"
   xmlns="http://www.w3.org/2000/svg"
   xmlns:sodipodi="http://sodipodi.sourceforge.net/DTD/sodipodi-0.dtd"
   xmlns:inkscape="http://www.inkscape.org/namespaces/inkscape"
   width="210mm"
   height="297mm"
   viewBox="0 0 210 297"
   version="1.1"
   id="svg8"
   sodipodi:docname="title-front.svg"
   inkscape:version="0.92.4 (5da689c313, 2019-01-14)">
  <style
     id="style4524">
.title-frontpage {
    stroke-linejoin:round;
    stroke-opacity:1;
    stroke:#000000;
    stroke-linecap:round;
    stroke-dasharray:none;
    stroke-miterlimit:4;
    stroke-width:2.165;
    fill:none;
}</style>
  <defs
     id="defs2" />
  <sodipodi:namedview
     id="base"
     pagecolor="#ffffff"
     bordercolor="#666666"
     borderopacity="1.0"
     inkscape:pageopacity="0.0"
     inkscape:pageshadow="2"
     inkscape:zoom="1.4"
     inkscape:cx="513.84019"
     inkscape:cy="497.18408"
     inkscape:document-units="mm"
     inkscape:current-layer="layer1"
     showgrid="false"
     inkscape:window-width="1920"
     inkscape:window-height="1051"
     inkscape:window-x="-9"
     inkscape:window-y="-9"
     inkscape:window-maximized="1" />
  <metadata
     id="metadata5">
    <rdf:RDF>
      <cc:Work
         rdf:about="">
        <dc:format>image/svg+xml</dc:format>
        <dc:type
           rdf:resource="http://purl.org/dc/dcmitype/StillImage" />
      </cc:Work>
    </rdf:RDF>
  </metadata>
  <g
     inkscape:label="Layer 1"
     inkscape:groupmode="layer"
     id="layer1">
    <text
       xml:space="preserve"
       style="font-style:normal;font-weight:normal;font-size:70.55555725px;line-height:1.25;font-family:sans-serif;letter-spacing:0px;word-spacing:0px;fill:#000000;fill-opacity:1;stroke:none;stroke-width:0.26458332"
       x="3.7797627"
       y="156.39285"
       id="text12"><tspan
         sodipodi:role="line"
         id="tspan10"
         x="3.7797627"
         y="156.39285"
         style="font-style:normal;font-variant:normal;font-weight:normal;font-stretch:normal;font-size:67.02777863px;line-height:4.25;font-family:Abuget;-inkscape-font-specification:Abuget;stroke-width:0.26458332">Psühholoogia</tspan></text>
    <path
       class="title-frontpage"
       inkscape:connector-curvature="0"
       id="path14"
       d="m 39.498512,181.52827 c -0.377976,0.56697 1.889879,-4.53571 -6.236607,7.74851 -8.126489,12.28423 -12.851191,21.92263 -12.851191,21.92263 l -3.023809,9.07142 0.566964,9.26042 c 0,0 -6.614583,2.64583 -6.803571,-0.56697 -0.188989,-3.21279 -13.229167,-14.36309 -8.3154766,-18.52083 4.9136904,-4.15774 5.6696428,-0.18899 5.6696428,-0.18899 l 0.5669643,1.51191 6.9925595,0.94494 10.205357,-2.26786 16.441963,-6.04762 14.930062,-10.39434 6.803569,-11.90625 -2.645833,-6.23661 -9.260416,-1.88988 -13.985119,1.70089 -12.85119,4.7247 -8.882441,6.4256 -6.803571,8.69345 0.755952,4.15774 5.480655,1.13393 c 0,0 8.691317,1.88221 1.889881,3.77976 -6.803571,1.89814 -16.063988,-1.02646 -16.063988,-6.99256 l 22.489583,-30.04911 44.223213,3.40179 0.377976,20.41072 -1.322917,8.69345 c 0,0 2.078871,-1.32292 -4.346725,1.70089 -6.425595,3.02381 -5.480654,4.91369 -5.480654,4.91369 l 3.590774,1.70089 3.590772,0.94494 -1.133927,4.34673 -4.346726,3.77976 -3.401785,2.45685 -4.346729,2.64583 13.229167,-0.56696 2.645833,-6.4256 -0.755951,-10.01637 3.779763,-5.66964 3.401785,0.56696 c 0,0 -1.700893,2.45685 -2.267858,4.15774 -0.566965,1.70089 -2.456844,3.2128 -1.889881,5.48066 0.566965,2.26785 0,3.77976 1.511906,2.45684 1.511903,-1.32291 1.511903,-2.45684 3.401785,-2.26786 1.889881,0.18899 -0.944941,1.51191 1.13393,-1.5119 2.078868,-3.02381 1.322916,-1.32292 2.645833,-3.2128 1.322917,-1.88988 1.889879,-2.07887 2.645833,-2.64583 0.755952,-0.56697 -0.566965,-0.56697 -1.13393,2.26785 -0.566965,2.83483 -1.700892,2.45685 -1.322916,4.34673 0.377975,1.88988 0.755951,3.2128 2.078868,3.2128 1.322916,0 3.779763,-1.13393 3.779763,-1.13393 0,0 0.566965,-0.37797 2.078868,-0.94494 1.511906,-0.56696 2.456847,0 2.645834,-0.94494 0.188989,-0.94494 14.174104,-27.59226 14.174104,-27.59226 l -14.741069,27.59226 -1.511904,4.34673 5.669643,-6.04762 4.346726,-1.88988 0.94494,1.32291 c 0,0 0,3.77977 -0.94494,3.96875 -0.944941,0.18899 -2.456844,3.02381 -2.267858,3.77977 0.188989,0.75595 -2.078868,3.59077 -2.078868,3.59077 l -1.889882,3.40178 c 0,0 3.401788,0.94495 3.779764,0.18899 0.377975,-0.75595 2.834819,-3.77976 2.834819,-3.77976 l 9.638389,-10.58333 13.22917,-26.08036 -15.68601,31.56101 4.15774,-4.53571 4.15773,-3.02381 2.45685,-0.75596 0.56696,2.07888 -2.26785,3.59077 -5.66965,10.96131 2.07887,1.5119 3.02381,-3.02381 9.07143,-9.4494 3.77976,-6.4256 2.07887,-1.5119 2.45685,-1.32292 1.32291,3.40179 -2.26785,1.70089 -1.32292,-2.45685 -2.07887,-0.18898 -1.88988,4.15773 c 0,0 -0.18899,2.07887 -0.75595,2.83483 -0.56697,0.75595 -0.56697,1.32291 0.37797,1.70089 0.94494,0.37797 3.40179,0.37797 3.59078,-0.37798 0.18899,-0.75595 0.94494,-1.70089 1.32291,-2.64583 0.37798,-0.94494 1.88989,-1.88988 1.88989,-1.88988 l 2.26785,-0.94494 2.45685,-1.32292 2.26785,0.18899 1.51191,-3.40179 9.26042,-22.1116 -12.47322,30.23809 c 0,0 -2.26786,2.07887 0.18899,3.59078 2.45685,1.5119 5.66964,-3.40179 1.32292,1.13393 -4.34673,4.53571 5.66964,-5.48066 5.66964,-5.48066 l 2.45684,-4.15774 c 0,0 1.51191,-0.75595 2.26786,-1.88988 0.75595,-1.13393 2.26786,-2.07887 3.02381,-1.88988 0.75595,0.18899 2.45685,-1.13393 2.26786,0.75595 -0.18899,1.88988 0.75595,4.91369 -1.32292,3.59078 -2.07887,-1.32292 -1.88988,-1.7009 -3.02381,-2.07887 -1.13393,-0.37798 -1.5119,0.18898 -1.70089,1.32291 -0.18899,1.13393 -1.51191,1.7009 -1.70089,3.02381 -0.18899,1.32292 -0.18899,2.83483 -0.56697,4.15774 -0.37797,1.32292 -0.18899,1.70089 1.32292,1.32292 1.5119,-0.37798 3.02381,-0.56697 3.40178,-2.07887 0.37798,-1.51191 -0.18898,-2.07887 0.75596,-3.2128 0.94494,-1.13393 3.02381,-1.5119 3.02381,-1.5119 0,0 0.56696,-0.37798 1.5119,-0.37798 0.94494,0 3.96875,-2.07887 3.96875,-2.07887 0,0 0.94494,-1.5119 2.45685,-2.07887 1.5119,-0.56696 3.59077,-0.75595 3.59077,0.56697 0,1.32291 0,3.77976 -1.13393,3.59077 -1.13393,-0.18899 -2.07887,-2.07887 -2.83482,-2.45685 -0.75595,-0.37797 -1.70089,-0.18898 -1.88988,0.75596 -0.18899,0.94494 -2.07887,0.75595 -2.07887,2.07887 0,1.32291 -1.32292,4.7247 -1.32292,4.7247 0,0 1.88988,2.26786 2.83483,2.07887 0.94494,-0.18899 2.45684,-1.7009 3.0238,-2.64583 0.56697,-0.94495 2.07887,-3.2128 2.07887,-3.2128 0,0 0.94494,-2.45685 2.26786,-2.45685 1.32292,0 4.53572,0 5.48066,-0.75595 0.94494,-0.75595 4.15773,-1.88988 4.15773,-1.88988 0,0 2.45685,0.56696 1.51191,1.13393 -0.94494,0.56696 -1.70089,3.77976 -1.70089,3.77976 0,0 -0.56697,1.13393 -1.88989,2.07887 -1.32291,0.94494 -3.0238,1.32292 -3.77976,1.88988 -0.75595,0.56696 -1.88988,0.37797 -1.88988,-0.56696 0,-0.94495 -1.32291,-2.45685 -0.18899,-3.2128 1.13393,-0.75595 0.75596,-0.94494 1.7009,-2.07887 0.94494,-1.13393 3.02381,-2.26786 3.02381,-2.26786 0,0 0.56696,-1.32292 1.88988,-1.32292 1.32291,0 3.21279,0.75596 3.21279,0.75596 l 0.37798,3.21279 -0.56696,3.77977 c 0,0 -0.18899,3.21279 -0.18899,4.15773 0,0.94495 -1.70089,-1.32291 -1.70089,0.94495 0,2.26785 0.37797,3.40178 -0.37798,4.7247 -0.75595,1.32291 -1.51191,-2.26786 -1.70089,-1.13393 -0.18899,1.13393 -1.32292,4.15774 -1.51191,4.91369 -0.18899,0.75595 -1.70089,2.64583 -2.07887,3.40179 -0.37797,0.75595 -2.07887,2.07886 -2.64583,2.83482 -0.56696,0.75595 0.56696,1.32291 -0.56696,2.26785 -1.13393,0.94494 -2.45685,2.83483 -3.2128,3.40179 -0.75595,0.56696 -0.94494,1.88988 -2.83482,2.26785 -1.88988,0.37798 -3.2128,0.75596 -3.2128,0.75596 0,0 -0.56697,-1.88988 -0.56697,-2.83482 0,-0.94494 0.75596,-3.02381 1.32292,-3.77977 0.56697,-0.75595 1.88988,-3.02381 3.02381,-3.96875 1.13393,-0.94493 3.40179,-3.21279 3.40179,-3.21279 l 3.40178,-2.26786 c 0,0 3.40179,-3.02381 3.77976,-3.77976 0.37798,-0.75595 -0.75595,-1.32292 0.56697,-2.26786 1.32291,-0.94494 3.2128,-2.26786 3.2128,-2.26786 l 1.70089,-2.45684 c 0,0 5.10268,-2.26786 5.85863,-2.64584 0.75595,-0.37797 1.5119,-2.83482 1.5119,-2.83482 l 0.56697,-2.83482 c 0,0 -2.26786,3.40179 -2.26786,4.34673 0,0.94494 0.37798,3.77976 0.18899,4.7247 -0.18899,0.94494 -2.64583,-0.94494 -1.13393,0.18899 1.51191,1.13393 2.83482,0.75595 4.15774,-0.18899 1.32292,-0.94494 3.40178,-2.26786 3.40178,-2.26786 0,0 2.45685,-1.70089 3.2128,-1.88988 0.75595,-0.18899 0.56697,-0.37797 1.32292,-1.13392 0.75595,-0.75596 3.02381,-1.13393 3.2128,-2.07888 0.18898,-0.94494 3.77976,-2.26785 4.53571,-2.26785 0.75595,0 0.37798,1.32291 0.18899,2.83482 -0.18899,1.51191 -0.94494,3.40178 -2.26786,4.53571 -1.32291,1.13393 -5.10268,1.32292 -5.10268,1.32292 0,0 -1.70089,-0.75595 -1.32291,-1.88988 0.37797,-1.13393 -0.18899,-3.40179 0,-1.51191 0.18898,1.88989 -2.07887,4.34673 -0.56697,4.34673 1.51191,0 2.26786,-0.18899 3.40179,-0.75595 1.13393,-0.56696 3.2128,-2.07887 3.2128,-2.07887 0,0 1.32291,-2.26786 1.88988,-0.94494 0.56696,1.32292 -1.32292,2.83482 0,3.2128 1.32291,0.37797 3.40178,-0.56697 3.40178,-0.56697 l 4.34673,-1.13393 2.45684,-2.45684 c 0,0 -2.83482,-8.31548 -4.7247,-9.44941 -1.88988,-1.13393 -5.85863,-4.53571 -8.12649,-4.15773 -2.26785,0.37797 -4.15773,-0.37798 -5.10268,1.5119 -0.94494,1.88988 -4.91369,3.77976 -4.91369,3.77976 0,0 -0.56696,0.37798 -1.70089,-0.75595 -1.13393,-1.13393 2.07887,0.18899 -2.83482,-2.45685 -4.91369,-2.64583 -2.64583,-2.07886 -8.31548,-5.66964 -5.66964,-3.59077 -0.37797,-3.77976 -10.20535,-7.9375 -9.82738,-4.15774 -6.99256,-3.77976 -12.85119,-5.66964 -5.85863,-1.88988 -5.10268,-2.64583 -10.58334,-3.02381 -5.48065,-0.37798 -3.96875,-0.37798 -12.28422,-0.75595 -8.31548,-0.37798 -10.20536,0.18898 -18.52084,0.75595 -8.31547,0.56696 -17.386899,-2.83482 -18.142851,-0.75595 -0.755954,2.07887 0.566962,2.83482 -2.645833,6.04762 -3.212799,3.21279 -3.96875,4.15774 -4.724704,6.80357 -0.755952,2.64583 -1.133928,5.66964 -1.133928,6.61458 0,0.94494 -1.322917,1.88988 -1.322917,1.88988 l -1.13393,-0.37797 -6.047618,-1.51191 -2.456844,0.18899 v 1.13393 l 0.944941,0.75595"
       style="fill:none;stroke:#000000;stroke-width:2.16499996;stroke-linecap:round;stroke-linejoin:round;stroke-miterlimit:4;stroke-dasharray:none;stroke-opacity:1"
       sodipodi:nodetypes="cscccsscccccccccccccccscccccsccccccccccccscccsscssscccccccccccccccccccccccccccccccccccccsccccccccccccsssccsccccscsccsscssccccsscccccscscscccssccscccsccscccccccccccsscscsccssccccssccccccscccscssssccscsscccccc" />
  </g>
</svg>
